<svg xmlns="http://www.w3.org/2000/svg" viewBox="0 0 68.12 79.84"><defs><style>.cls-1{fill:#373d46;}</style></defs><title>Cadeado</title><g id="Camada_2" data-name="Camada 2"><g id="Camada_1-2" data-name="Camada 1"><path class="cls-1" d="M63.25,36.92V29.19a29.19,29.19,0,0,0-58.38,0v7.73A15.93,15.93,0,0,0,0,48.38V63.83a16,16,0,0,0,16,16h36.1a16,16,0,0,0,16-16V48.38A15.89,15.89,0,0,0,63.25,36.92ZM26.34,69.14l5.4-14.35a6.61,6.61,0,1,1,4.64,0l5.4,14.35ZM8.87,35.24V29.19a25.19,25.19,0,0,1,50.38,0v6.05Z"/></g></g></svg>