<svg xmlns="http://www.w3.org/2000/svg" viewBox="0 0 22.53 19.13"><defs><style>.cls-1{fill:#373e48;}</style></defs><title>Ativo 4</title><g id="Camada_2" data-name="Camada 2"><g id="Layer_3" data-name="Layer 3"><path class="cls-1" d="M21.53,19.13H1a1,1,0,0,1-1-1V1.79a1,1,0,0,1,1-1H21.53a1,1,0,0,1,1,1V18.13a1,1,0,0,1-1,1ZM2,17.13H20.53V2.79H2V17.13Z"/><path class="cls-1" d="M7.21,10.52A2.75,2.75,0,0,1,4.59,7.65,2.75,2.75,0,0,1,7.21,4.78,2.75,2.75,0,0,1,9.83,7.65a2.75,2.75,0,0,1-2.62,2.87Zm0-3.74c-.34,0-.62.4-.62.87s.28.87.62.87.62-.41.62-.87-.29-.87-.62-.87Z"/><path class="cls-1" d="M10.34,16.06H4.08a1,1,0,0,1-1-.93l-.14-2a2.56,2.56,0,0,1,1.63-2.44,7.82,7.82,0,0,1,5.25,0,2.56,2.56,0,0,1,1.64,2.45l-.13,2a1,1,0,0,1-1,.93ZM5,14.06H9.4L9.48,13a.69.69,0,0,0-.33-.44,5.83,5.83,0,0,0-3.89,0,.69.69,0,0,0-.32.43L5,14.06Z"/><path class="cls-1" d="M15.24,0H7.74a1.75,1.75,0,0,0,0,3.5h7.5a1.75,1.75,0,1,0,0-3.5Z"/><path class="cls-1" d="M17.57,9.08H13.41a1,1,0,0,1,0-2h4.16a1,1,0,0,1,0,2Z"/><path class="cls-1" d="M17.57,12.25H13.41a1,1,0,0,1,0-2h4.16a1,1,0,0,1,0,2Z"/></g></g></svg>