<svg xmlns="http://www.w3.org/2000/svg" viewBox="0 0 22.88 16.6"><defs><style>.cls-1{fill:#373e48;}</style></defs><title>Ativo 3</title><g id="Camada_2" data-name="Camada 2"><g id="Layer_3" data-name="Layer 3"><path class="cls-1" d="M20.52,16.6H2.36A2.36,2.36,0,0,1,0,14.24V2.36A2.36,2.36,0,0,1,2.36,0H20.52a2.36,2.36,0,0,1,2.36,2.36V14.24a2.36,2.36,0,0,1-2.36,2.36ZM2.36,2A.36.36,0,0,0,2,2.36V14.24a.36.36,0,0,0,.36.36H20.52a.36.36,0,0,0,.36-.36V2.36A.36.36,0,0,0,20.52,2Z"/><path class="cls-1" d="M20.52,16.1H2.36A1.87,1.87,0,0,1,.62,14.9a.5.5,0,0,1,.14-.55L7.85,8a.5.5,0,0,1,.66.74L1.73,14.82a.88.88,0,0,0,.63.28H20.52a.88.88,0,0,0,.63-.28L14.29,8.7A.5.5,0,0,1,15,8l7.17,6.39a.5.5,0,0,1,.14.55,1.87,1.87,0,0,1-1.74,1.2Z"/><path class="cls-1" d="M11.44,11.61a.51.51,0,0,1-.33-.13L.76,2.25A.5.5,0,0,1,.62,1.7,1.87,1.87,0,0,1,2.36.5H20.52a1.87,1.87,0,0,1,1.74,1.2.5.5,0,0,1-.14.55L11.77,11.48a.51.51,0,0,1-.33.13ZM1.73,1.78l9.71,8.66,9.71-8.66a.84.84,0,0,0-.63-.28H2.36a.84.84,0,0,0-.63.28Z"/></g></g></svg>