<svg xmlns="http://www.w3.org/2000/svg" viewBox="0 0 22.56 23.78"><defs><style>.cls-1{fill:#373e48;}</style></defs><title>Ativo 2</title><g id="Camada_2" data-name="Camada 2"><g id="Layer_3" data-name="Layer 3"><path class="cls-1" d="M11.28,23.78a56.7,56.7,0,0,1-8.82-.7,2.86,2.86,0,0,1-2.2-2.44C.17,19.82.09,19,0,18.18a3.22,3.22,0,0,1,1.61-3,22.65,22.65,0,0,1,6-1.87l0-.22a2.65,2.65,0,0,1-1-1.67l-.06-.58A1.42,1.42,0,0,1,5.66,9.7L5.42,7.37a1.35,1.35,0,0,1,.3-1A1.42,1.42,0,0,1,6,6.09l-.08-.7A4.39,4.39,0,0,1,7.07,1.5,6,6,0,0,1,11.28,0a6.12,6.12,0,0,1,4.26,1.53,4.38,4.38,0,0,1,1.14,3.85l0,.2-.06.51a1,1,0,0,1,.24.23,1.44,1.44,0,0,1,.31,1.06L16.91,9.7a1.42,1.42,0,0,1-.86,1.17l-.08.61a2.56,2.56,0,0,1-1,1.64l0,.23A21.93,21.93,0,0,1,20.9,15.2a3.22,3.22,0,0,1,1.65,3l-.24,2.46a2.85,2.85,0,0,1-2.18,2.43,56.17,56.17,0,0,1-8.85.71ZM7.58,8.87a.32.32,0,0,1,.14,0,1,1,0,0,1,.68.83c.06.51.12,1,.17,1.52a1.15,1.15,0,0,0,.46.47,1,1,0,0,1,.45.71l.23,1.62a1,1,0,0,1-.87,1.14A20.26,20.26,0,0,0,2.52,17,1.23,1.23,0,0,0,2,18c.08.82.16,1.63.25,2.45a.86.86,0,0,0,.55.67,54.09,54.09,0,0,0,17,0,.86.86,0,0,0,.53-.66L20.56,18A1.22,1.22,0,0,0,20,17a19.77,19.77,0,0,0-6.29-1.8,1,1,0,0,1-.67-.39,1,1,0,0,1-.2-.75l.24-1.63a1,1,0,0,1,.45-.7,1.1,1.1,0,0,0,.45-.46l.18-1.53a1,1,0,0,1,.68-.83.31.31,0,0,1,.13,0l.12-1.12a.51.51,0,0,1-.16-.09,1,1,0,0,1-.43-.94v-.1l.15-1.22,0-.21A2.49,2.49,0,0,0,14.17,3a4.18,4.18,0,0,0-2.89-1A4.15,4.15,0,0,0,8.43,3,2.51,2.51,0,0,0,7.88,5.2l.17,1.53a1,1,0,0,1-.43.94l-.15.08.11,1.12Z"/></g></g></svg>