<svg xmlns="http://www.w3.org/2000/svg" viewBox="0 0 6.56 6.56"><defs><style>.cls-1{fill:#fff;}</style></defs><title>Ativo 2</title><g id="Camada_2" data-name="Camada 2"><g id="Layer_1" data-name="Layer 1"><path class="cls-1" d="M1,4.54a1,1,0,1,0,1,1A1,1,0,0,0,1,4.54Z"/><path class="cls-1" d="M1,0A5.77,5.77,0,0,0,.07.08v1.1A4.17,4.17,0,0,1,1,1.08,4.48,4.48,0,0,1,5.48,5.55a4.75,4.75,0,0,1-.1.94h1.1a5.77,5.77,0,0,0,.08-.94A5.56,5.56,0,0,0,1,0Z"/><path class="cls-1" d="M1,2.19a3.24,3.24,0,0,0-.94.14V3.48A2.27,2.27,0,0,1,1,3.27,2.29,2.29,0,0,1,3.29,5.55a2.23,2.23,0,0,1-.21.94H4.23a3.24,3.24,0,0,0,.14-.94A3.37,3.37,0,0,0,1,2.19Z"/></g></g></svg>