<svg xmlns="http://www.w3.org/2000/svg" viewBox="0 0 170.92 213.8"><defs><style>.cls-1{fill:#373e48;}</style></defs><title>Pessoa</title><g id="Camada_2" data-name="Camada 2"><g id="Camada_1-2" data-name="Camada 1"><path class="cls-1" d="M164.63,163.09c-2.72-39.24-28.39-40.88-43.75-41.85-1.92-.14-3.74-.26-5.41-.41,0,0-3.62-2-5.14-19.77a5.28,5.28,0,0,0-.88-2.39c1.38-1.32,2.72-2.69,4.06-4.18a4.49,4.49,0,0,0,.76-1.18A86.71,86.71,0,0,0,124.6,78.7a3.55,3.55,0,0,0,1-1.29,67.75,67.75,0,0,0,3.22-6.76A9.42,9.42,0,0,0,135,62.44l2.42-12.73a5.2,5.2,0,0,0,.09-1,9.3,9.3,0,0,0-5.61-8.54v-4A36.23,36.23,0,0,0,95.74,0H74.83A36.26,36.26,0,0,0,38.59,36.2v4.24a9.34,9.34,0,0,0-5.47,8.48,4.69,4.69,0,0,0,.09.94l2.46,12.72a9.38,9.38,0,0,0,6.11,8.19A84.85,84.85,0,0,0,61.29,98.84a5.14,5.14,0,0,0-.79,2.22C59,118.79,55.35,120.8,55.38,120.8c-1.7.18-3.51.3-5.41.44-15.38,1-41,2.61-43.81,41.85-2.48,35.82-5.49,43-5.49,43.08a5.11,5.11,0,0,0,4.44,7.63h160.6a5.07,5.07,0,0,0,4.48-2.4,4.91,4.91,0,0,0,.12-4.94C170.16,206.14,167.15,198.91,164.63,163.09Z"/></g></g></svg>