<svg xmlns="http://www.w3.org/2000/svg" viewBox="0 0 175.16 196.6"><defs><style>.cls-1{fill:#fff;}</style></defs><title>Sair</title><g id="Camada_2" data-name="Camada 2"><g id="Camada_1-2" data-name="Camada 1"><path class="cls-1" d="M87.59,77.34A8.33,8.33,0,0,1,79.25,69V8.34a8.34,8.34,0,1,1,16.67,0V69a8.33,8.33,0,0,1-8.33,8.34Z"/><path class="cls-1" d="M87.59,196.6A87.54,87.54,0,0,1,58.8,26.38a8.34,8.34,0,0,1,5.49,15.75,70.91,70.91,0,1,0,46.59,0,8.34,8.34,0,1,1,5.49-15.75A87.54,87.54,0,0,1,87.59,196.6Z"/></g></g></svg>